<svg xmlns="http://www.w3.org/2000/svg" width="32" height="32" fill="none"><path fill-rule="evenodd" clip-rule="evenodd" d="M10.451.79c-.296-1.054-1.857-1.054-2.153 0L7.88 2.284C6.975 5.5 5.74 8.013 2.383 8.88l-1.558.402c-1.1.284-1.1 1.78 0 2.063l1.558.402c3.357.866 4.592 3.379 5.496 6.595l.42 1.493c.295 1.055 1.856 1.055 2.152 0l.42-1.492c.903-3.217 2.14-5.73 5.496-6.596l1.558-.402c1.1-.284 1.1-1.78 0-2.063l-1.558-.402c-3.357-.866-4.593-3.379-5.496-6.596L10.45.791z" fill="url(#prefix__paint0_linear_4391_12227)"/><path fill-rule="evenodd" clip-rule="evenodd" d="M25.02.503c-.177-.67-1.113-.67-1.291 0l-.252.95C22.935 3.5 22.194 5.1 20.18 5.65l-.935.256c-.66.18-.66 1.132 0 1.313l.935.256c2.014.55 2.755 2.15 3.297 4.197l.252.95c.178.67 1.114.67 1.292 0l.252-.95c.542-2.047 1.283-3.646 3.297-4.197l.935-.256c.66-.18.66-1.132 0-1.313l-.935-.256c-2.014-.55-2.755-2.15-3.297-4.197l-.252-.95z" fill="url(#prefix__paint1_linear_4391_12227)"/><defs><linearGradient id="prefix__paint0_linear_4391_12227" x1="9.2" y1="20.367" x2="19.281" y2=".815" gradientUnits="userSpaceOnUse"><stop stop-color="#FF02F0"/><stop offset="1" stop-color="#FFC800"/></linearGradient><linearGradient id="prefix__paint1_linear_4391_12227" x1="24.1" y1="13.178" x2="30.582" y2=".831" gradientUnits="userSpaceOnUse"><stop stop-color="#8930FD"/><stop offset="1" stop-color="#49CCF9"/></linearGradient></defs></svg>
